# xmcd CD database file
#
# Track frame offsets:
#	150
#	14837
#	26912
#	38057
#	52897
#	67397
#	81972
#	95352
#	110142
#	122595
#	134682
#	153302
#	166050
#	178187
#	189637
#	205312
#	223525
#	237500
#	252895
#	262597
#
# Disc length: 3761 seconds
#
# Revision: 1
# Processed by: cddbd v1.5.1PL0 Copyright (c) Steve Scherf et al.
# Submitted via: CDex 1.51
#
DISCID=250eaf14
DTITLE=Orquestra Harmônicas de Curitiba - Orquestra Harmônicas de Curitiba
DYEAR=2001
DGENRE=Jazz
TTITLE0=Begin the Beguine
TTITLE1=Tico Tico no Fubá
TTITLE2=Smoke Gets in your Eyes
TTITLE3=Meditação
TTITLE4=Rhapsody in Blue
TTITLE5=Pedacinhos do Céu
TTITLE6=In the Mood
TTITLE7=Linda Flor
TTITLE8=La Cumparsita
TTITLE9=Carioquinha
TTITLE10=Stardust
TTITLE11=Delicado
TTITLE12=Carioca
TTITLE13=Riders in the Sky
TTITLE14=Índia
TTITLE15=Concerto para um Voz
TTITLE16=Canta Brasil
TTITLE17=Dancing in the Dark
TTITLE18=Rosmunde - Beer Barrel Polka
TTITLE19=Bolero de Ravel
EXTD=YEAR: 2001
EXTT0=
EXTT1=
EXTT2=
EXTT3=
EXTT4=
EXTT5=
EXTT6=
EXTT7=
EXTT8=
EXTT9=
EXTT10=
EXTT11=
EXTT12=
EXTT13=
EXTT14=
EXTT15=
EXTT16=
EXTT17=
EXTT18=
EXTT19=
PLAYORDER=
